<svg xmlns="http://www.w3.org/2000/svg" xmlns:xlink="http://www.w3.org/1999/xlink" width="500" zoomAndPan="magnify" viewBox="0 0 375 76.499998" height="102" preserveAspectRatio="xMidYMid meet" version="1.0"><defs><g/><clipPath id="2d8b2c0b12"><path d="M 322.777344 16.65625 L 373.445312 16.65625 L 373.445312 49 L 322.777344 49 Z M 322.777344 16.65625 " clip-rule="nonzero"/></clipPath><clipPath id="76e4403b2b"><path d="M 322.777344 45 L 362 45 L 362 66.582031 L 322.777344 66.582031 Z M 322.777344 45 " clip-rule="nonzero"/></clipPath><clipPath id="44399aef2e"><path d="M 1.335938 16.65625 L 51.886719 16.65625 L 51.886719 49 L 1.335938 49 Z M 1.335938 16.65625 " clip-rule="nonzero"/></clipPath><clipPath id="093074c9d2"><path d="M 13 45 L 51.886719 45 L 51.886719 66.582031 L 13 66.582031 Z M 13 45 " clip-rule="nonzero"/></clipPath></defs><g fill="#363435" fill-opacity="1"><g transform="translate(59.964479, 40.509157)"><g><path d="M 17.0625 0 L 15.390625 -5.5 L 6.96875 -5.5 L 5.28125 0 L 0 0 L 8.15625 -23.21875 L 14.15625 -23.21875 L 22.34375 0 Z M 14.21875 -9.625 L 12.53125 -15 C 12.425781 -15.363281 12.285156 -15.828125 12.109375 -16.390625 C 11.941406 -16.953125 11.769531 -17.523438 11.59375 -18.109375 C 11.425781 -18.691406 11.285156 -19.195312 11.171875 -19.625 C 11.066406 -19.195312 10.921875 -18.660156 10.734375 -18.015625 C 10.554688 -17.378906 10.382812 -16.773438 10.21875 -16.203125 C 10.050781 -15.640625 9.925781 -15.238281 9.84375 -15 L 8.1875 -9.625 Z M 14.21875 -9.625 "/></g></g></g><g fill="#363435" fill-opacity="1"><g transform="translate(81.819733, 40.509157)"><g><path d="M 0 -17.6875 L 5.28125 -17.6875 L 8.609375 -7.734375 C 8.785156 -7.242188 8.914062 -6.75 9 -6.25 C 9.09375 -5.75 9.160156 -5.222656 9.203125 -4.671875 L 9.296875 -4.671875 C 9.359375 -5.222656 9.441406 -5.75 9.546875 -6.25 C 9.660156 -6.75 9.800781 -7.242188 9.96875 -7.734375 L 13.25 -17.6875 L 18.4375 -17.6875 L 10.953125 2.265625 C 10.253906 4.097656 9.269531 5.472656 8 6.390625 C 6.726562 7.316406 5.25 7.78125 3.5625 7.78125 C 3 7.78125 2.523438 7.75 2.140625 7.6875 C 1.753906 7.632812 1.40625 7.578125 1.09375 7.515625 L 1.09375 3.6875 C 1.3125 3.726562 1.59375 3.769531 1.9375 3.8125 C 2.289062 3.863281 2.648438 3.890625 3.015625 3.890625 C 4.023438 3.890625 4.820312 3.582031 5.40625 2.96875 C 5.988281 2.351562 6.429688 1.613281 6.734375 0.75 L 7.03125 -0.125 Z M 0 -17.6875 "/></g></g></g><g fill="#363435" fill-opacity="1"><g transform="translate(99.757212, 40.509157)"><g><path d="M 12.40625 -18.015625 C 12.644531 -18.015625 12.925781 -18 13.25 -17.96875 C 13.570312 -17.945312 13.832031 -17.914062 14.03125 -17.875 L 13.671875 -13.34375 C 13.492188 -13.382812 13.265625 -13.421875 12.984375 -13.453125 C 12.703125 -13.484375 12.457031 -13.5 12.25 -13.5 C 11.425781 -13.5 10.632812 -13.351562 9.875 -13.0625 C 9.125 -12.769531 8.515625 -12.300781 8.046875 -11.65625 C 7.585938 -11.007812 7.359375 -10.125 7.359375 -9 L 7.359375 0 L 2.53125 0 L 2.53125 -17.6875 L 6.1875 -17.6875 L 6.90625 -14.703125 L 7.125 -14.703125 C 7.644531 -15.609375 8.359375 -16.382812 9.265625 -17.03125 C 10.171875 -17.6875 11.21875 -18.015625 12.40625 -18.015625 Z M 12.40625 -18.015625 "/></g></g></g><g fill="#363435" fill-opacity="1"><g transform="translate(113.971189, 40.509157)"><g><path d="M 9.78125 -18.046875 C 12.15625 -18.046875 13.972656 -17.53125 15.234375 -16.5 C 16.503906 -15.476562 17.140625 -13.910156 17.140625 -11.796875 L 17.140625 0 L 13.765625 0 L 12.828125 -2.390625 L 12.703125 -2.390625 C 11.941406 -1.441406 11.140625 -0.75 10.296875 -0.3125 C 9.453125 0.113281 8.296875 0.328125 6.828125 0.328125 C 5.253906 0.328125 3.945312 -0.125 2.90625 -1.03125 C 1.875 -1.9375 1.359375 -3.351562 1.359375 -5.28125 C 1.359375 -7.15625 2.015625 -8.535156 3.328125 -9.421875 C 4.648438 -10.304688 6.628906 -10.804688 9.265625 -10.921875 L 12.34375 -11.015625 L 12.34375 -11.796875 C 12.34375 -12.722656 12.097656 -13.398438 11.609375 -13.828125 C 11.128906 -14.265625 10.457031 -14.484375 9.59375 -14.484375 C 8.726562 -14.484375 7.882812 -14.359375 7.0625 -14.109375 C 6.238281 -13.859375 5.414062 -13.550781 4.59375 -13.1875 L 3.015625 -16.453125 C 3.941406 -16.929688 4.988281 -17.316406 6.15625 -17.609375 C 7.320312 -17.898438 8.53125 -18.046875 9.78125 -18.046875 Z M 12.34375 -8.1875 L 10.46875 -8.125 C 8.90625 -8.082031 7.820312 -7.800781 7.21875 -7.28125 C 6.613281 -6.769531 6.3125 -6.09375 6.3125 -5.25 C 6.3125 -4.507812 6.523438 -3.984375 6.953125 -3.671875 C 7.390625 -3.359375 7.953125 -3.203125 8.640625 -3.203125 C 9.679688 -3.203125 10.554688 -3.507812 11.265625 -4.125 C 11.984375 -4.738281 12.34375 -5.609375 12.34375 -6.734375 Z M 12.34375 -8.1875 "/></g></g></g><g fill="#363435" fill-opacity="1"><g transform="translate(133.041907, 40.509157)"><g><path d="M 23.28125 -18.015625 C 25.289062 -18.015625 26.804688 -17.5 27.828125 -16.46875 C 28.859375 -15.445312 29.375 -13.800781 29.375 -11.53125 L 29.375 0 L 24.546875 0 L 24.546875 -10.328125 C 24.546875 -12.878906 23.660156 -14.15625 21.890625 -14.15625 C 20.617188 -14.15625 19.710938 -13.703125 19.171875 -12.796875 C 18.628906 -11.890625 18.359375 -10.582031 18.359375 -8.875 L 18.359375 0 L 13.546875 0 L 13.546875 -10.328125 C 13.546875 -12.878906 12.660156 -14.15625 10.890625 -14.15625 C 9.546875 -14.15625 8.617188 -13.648438 8.109375 -12.640625 C 7.609375 -11.640625 7.359375 -10.203125 7.359375 -8.328125 L 7.359375 0 L 2.53125 0 L 2.53125 -17.6875 L 6.21875 -17.6875 L 6.859375 -15.421875 L 7.125 -15.421875 C 7.664062 -16.328125 8.40625 -16.984375 9.34375 -17.390625 C 10.28125 -17.804688 11.257812 -18.015625 12.28125 -18.015625 C 13.570312 -18.015625 14.664062 -17.800781 15.5625 -17.375 C 16.457031 -16.957031 17.15625 -16.304688 17.65625 -15.421875 L 18.078125 -15.421875 C 18.617188 -16.328125 19.367188 -16.984375 20.328125 -17.390625 C 21.285156 -17.804688 22.269531 -18.015625 23.28125 -18.015625 Z M 23.28125 -18.015625 "/></g></g></g><g fill="#363435" fill-opacity="1"><g transform="translate(164.351622, 40.509157)"><g><path d="M 9.8125 -18.015625 C 12.25 -18.015625 14.179688 -17.316406 15.609375 -15.921875 C 17.035156 -14.523438 17.75 -12.539062 17.75 -9.96875 L 17.75 -7.640625 L 6.34375 -7.640625 C 6.382812 -6.285156 6.789062 -5.21875 7.5625 -4.4375 C 8.332031 -3.65625 9.394531 -3.265625 10.75 -3.265625 C 11.875 -3.265625 12.90625 -3.378906 13.84375 -3.609375 C 14.78125 -3.835938 15.75 -4.191406 16.75 -4.671875 L 16.75 -0.9375 C 15.863281 -0.507812 14.941406 -0.191406 13.984375 0.015625 C 13.035156 0.222656 11.882812 0.328125 10.53125 0.328125 C 8.757812 0.328125 7.191406 0 5.828125 -0.65625 C 4.472656 -1.320312 3.40625 -2.316406 2.625 -3.640625 C 1.84375 -4.972656 1.453125 -6.664062 1.453125 -8.71875 C 1.453125 -10.769531 1.800781 -12.484375 2.5 -13.859375 C 3.207031 -15.242188 4.1875 -16.28125 5.4375 -16.96875 C 6.6875 -17.664062 8.144531 -18.015625 9.8125 -18.015625 Z M 9.84375 -14.578125 C 8.894531 -14.578125 8.117188 -14.273438 7.515625 -13.671875 C 6.910156 -13.066406 6.554688 -12.125 6.453125 -10.84375 L 13.21875 -10.84375 C 13.195312 -11.90625 12.910156 -12.789062 12.359375 -13.5 C 11.804688 -14.21875 10.96875 -14.578125 9.84375 -14.578125 Z M 9.84375 -14.578125 "/></g></g></g><g fill="#363435" fill-opacity="1"><g transform="translate(183.001413, 40.509157)"><g><path d="M 14.875 -5.25 C 14.875 -3.457031 14.238281 -2.078125 12.96875 -1.109375 C 11.707031 -0.148438 9.820312 0.328125 7.3125 0.328125 C 6.082031 0.328125 5.023438 0.242188 4.140625 0.078125 C 3.253906 -0.078125 2.367188 -0.34375 1.484375 -0.71875 L 1.484375 -4.703125 C 2.441406 -4.265625 3.46875 -3.90625 4.5625 -3.625 C 5.664062 -3.34375 6.640625 -3.203125 7.484375 -3.203125 C 8.410156 -3.203125 9.078125 -3.34375 9.484375 -3.625 C 9.898438 -3.90625 10.109375 -4.273438 10.109375 -4.734375 C 10.109375 -5.035156 10.023438 -5.300781 9.859375 -5.53125 C 9.703125 -5.769531 9.351562 -6.039062 8.8125 -6.34375 C 8.269531 -6.644531 7.425781 -7.035156 6.28125 -7.515625 C 5.15625 -7.992188 4.242188 -8.460938 3.546875 -8.921875 C 2.847656 -9.390625 2.320312 -9.953125 1.96875 -10.609375 C 1.625 -11.265625 1.453125 -12.085938 1.453125 -13.078125 C 1.453125 -14.722656 2.085938 -15.957031 3.359375 -16.78125 C 4.640625 -17.601562 6.335938 -18.015625 8.453125 -18.015625 C 9.554688 -18.015625 10.601562 -17.90625 11.59375 -17.6875 C 12.582031 -17.46875 13.609375 -17.109375 14.671875 -16.609375 L 13.21875 -13.15625 C 12.351562 -13.519531 11.53125 -13.828125 10.75 -14.078125 C 9.976562 -14.328125 9.191406 -14.453125 8.390625 -14.453125 C 6.960938 -14.453125 6.25 -14.0625 6.25 -13.28125 C 6.25 -13 6.335938 -12.742188 6.515625 -12.515625 C 6.703125 -12.285156 7.0625 -12.039062 7.59375 -11.78125 C 8.125 -11.53125 8.90625 -11.1875 9.9375 -10.75 C 10.957031 -10.34375 11.832031 -9.914062 12.5625 -9.46875 C 13.300781 -9.03125 13.867188 -8.472656 14.265625 -7.796875 C 14.671875 -7.128906 14.875 -6.28125 14.875 -5.25 Z M 14.875 -5.25 "/></g></g></g><g fill="#363435" fill-opacity="1"><g transform="translate(198.607654, 40.509157)"><g/></g></g><g fill="#363435" fill-opacity="1"><g transform="translate(207.0259, 40.509157)"><g><path d="M 10.296875 -23.125 C 13.273438 -23.125 15.453125 -22.476562 16.828125 -21.1875 C 18.203125 -19.90625 18.890625 -18.144531 18.890625 -15.90625 C 18.890625 -14.539062 18.609375 -13.273438 18.046875 -12.109375 C 17.484375 -10.941406 16.546875 -10.003906 15.234375 -9.296875 C 13.929688 -8.585938 12.15625 -8.234375 9.90625 -8.234375 L 7.8125 -8.234375 L 7.8125 0 L 2.921875 0 L 2.921875 -23.125 Z M 10.046875 -19.109375 L 7.8125 -19.109375 L 7.8125 -12.25 L 9.421875 -12.25 C 10.804688 -12.25 11.898438 -12.519531 12.703125 -13.0625 C 13.515625 -13.613281 13.921875 -14.503906 13.921875 -15.734375 C 13.921875 -17.984375 12.628906 -19.109375 10.046875 -19.109375 Z M 10.046875 -19.109375 "/></g></g></g><g fill="#363435" fill-opacity="1"><g transform="translate(226.87369, 40.509157)"><g><path d="M 9.8125 -18.015625 C 12.25 -18.015625 14.179688 -17.316406 15.609375 -15.921875 C 17.035156 -14.523438 17.75 -12.539062 17.75 -9.96875 L 17.75 -7.640625 L 6.34375 -7.640625 C 6.382812 -6.285156 6.789062 -5.21875 7.5625 -4.4375 C 8.332031 -3.65625 9.394531 -3.265625 10.75 -3.265625 C 11.875 -3.265625 12.90625 -3.378906 13.84375 -3.609375 C 14.78125 -3.835938 15.75 -4.191406 16.75 -4.671875 L 16.75 -0.9375 C 15.863281 -0.507812 14.941406 -0.191406 13.984375 0.015625 C 13.035156 0.222656 11.882812 0.328125 10.53125 0.328125 C 8.757812 0.328125 7.191406 0 5.828125 -0.65625 C 4.472656 -1.320312 3.40625 -2.316406 2.625 -3.640625 C 1.84375 -4.972656 1.453125 -6.664062 1.453125 -8.71875 C 1.453125 -10.769531 1.800781 -12.484375 2.5 -13.859375 C 3.207031 -15.242188 4.1875 -16.28125 5.4375 -16.96875 C 6.6875 -17.664062 8.144531 -18.015625 9.8125 -18.015625 Z M 9.84375 -14.578125 C 8.894531 -14.578125 8.117188 -14.273438 7.515625 -13.671875 C 6.910156 -13.066406 6.554688 -12.125 6.453125 -10.84375 L 13.21875 -10.84375 C 13.195312 -11.90625 12.910156 -12.789062 12.359375 -13.5 C 11.804688 -14.21875 10.96875 -14.578125 9.84375 -14.578125 Z M 9.84375 -14.578125 "/></g></g></g><g fill="#363435" fill-opacity="1"><g transform="translate(245.523481, 40.509157)"><g><path d="M 12.40625 -18.015625 C 12.644531 -18.015625 12.925781 -18 13.25 -17.96875 C 13.570312 -17.945312 13.832031 -17.914062 14.03125 -17.875 L 13.671875 -13.34375 C 13.492188 -13.382812 13.265625 -13.421875 12.984375 -13.453125 C 12.703125 -13.484375 12.457031 -13.5 12.25 -13.5 C 11.425781 -13.5 10.632812 -13.351562 9.875 -13.0625 C 9.125 -12.769531 8.515625 -12.300781 8.046875 -11.65625 C 7.585938 -11.007812 7.359375 -10.125 7.359375 -9 L 7.359375 0 L 2.53125 0 L 2.53125 -17.6875 L 6.1875 -17.6875 L 6.90625 -14.703125 L 7.125 -14.703125 C 7.644531 -15.609375 8.359375 -16.382812 9.265625 -17.03125 C 10.171875 -17.6875 11.21875 -18.015625 12.40625 -18.015625 Z M 12.40625 -18.015625 "/></g></g></g><g fill="#363435" fill-opacity="1"><g transform="translate(259.737467, 40.509157)"><g><path d="M 9.8125 -18.015625 C 12.25 -18.015625 14.179688 -17.316406 15.609375 -15.921875 C 17.035156 -14.523438 17.75 -12.539062 17.75 -9.96875 L 17.75 -7.640625 L 6.34375 -7.640625 C 6.382812 -6.285156 6.789062 -5.21875 7.5625 -4.4375 C 8.332031 -3.65625 9.394531 -3.265625 10.75 -3.265625 C 11.875 -3.265625 12.90625 -3.378906 13.84375 -3.609375 C 14.78125 -3.835938 15.75 -4.191406 16.75 -4.671875 L 16.75 -0.9375 C 15.863281 -0.507812 14.941406 -0.191406 13.984375 0.015625 C 13.035156 0.222656 11.882812 0.328125 10.53125 0.328125 C 8.757812 0.328125 7.191406 0 5.828125 -0.65625 C 4.472656 -1.320312 3.40625 -2.316406 2.625 -3.640625 C 1.84375 -4.972656 1.453125 -6.664062 1.453125 -8.71875 C 1.453125 -10.769531 1.800781 -12.484375 2.5 -13.859375 C 3.207031 -15.242188 4.1875 -16.28125 5.4375 -16.96875 C 6.6875 -17.664062 8.144531 -18.015625 9.8125 -18.015625 Z M 9.84375 -14.578125 C 8.894531 -14.578125 8.117188 -14.273438 7.515625 -13.671875 C 6.910156 -13.066406 6.554688 -12.125 6.453125 -10.84375 L 13.21875 -10.84375 C 13.195312 -11.90625 12.910156 -12.789062 12.359375 -13.5 C 11.804688 -14.21875 10.96875 -14.578125 9.84375 -14.578125 Z M 9.84375 -14.578125 "/></g></g></g><g fill="#363435" fill-opacity="1"><g transform="translate(278.387269, 40.509157)"><g><path d="M 4.953125 -24.609375 C 5.671875 -24.609375 6.285156 -24.441406 6.796875 -24.109375 C 7.316406 -23.773438 7.578125 -23.15625 7.578125 -22.25 C 7.578125 -21.363281 7.316406 -20.75 6.796875 -20.40625 C 6.285156 -20.0625 5.671875 -19.890625 4.953125 -19.890625 C 4.222656 -19.890625 3.601562 -20.0625 3.09375 -20.40625 C 2.582031 -20.75 2.328125 -21.363281 2.328125 -22.25 C 2.328125 -23.15625 2.582031 -23.773438 3.09375 -24.109375 C 3.601562 -24.441406 4.222656 -24.609375 4.953125 -24.609375 Z M 7.359375 -17.6875 L 7.359375 0 L 2.53125 0 L 2.53125 -17.6875 Z M 7.359375 -17.6875 "/></g></g></g><g fill="#363435" fill-opacity="1"><g transform="translate(287.776887, 40.509157)"><g><path d="M 12.40625 -18.015625 C 12.644531 -18.015625 12.925781 -18 13.25 -17.96875 C 13.570312 -17.945312 13.832031 -17.914062 14.03125 -17.875 L 13.671875 -13.34375 C 13.492188 -13.382812 13.265625 -13.421875 12.984375 -13.453125 C 12.703125 -13.484375 12.457031 -13.5 12.25 -13.5 C 11.425781 -13.5 10.632812 -13.351562 9.875 -13.0625 C 9.125 -12.769531 8.515625 -12.300781 8.046875 -11.65625 C 7.585938 -11.007812 7.359375 -10.125 7.359375 -9 L 7.359375 0 L 2.53125 0 L 2.53125 -17.6875 L 6.1875 -17.6875 L 6.90625 -14.703125 L 7.125 -14.703125 C 7.644531 -15.609375 8.359375 -16.382812 9.265625 -17.03125 C 10.171875 -17.6875 11.21875 -18.015625 12.40625 -18.015625 Z M 12.40625 -18.015625 "/></g></g></g><g fill="#363435" fill-opacity="1"><g transform="translate(301.990862, 40.509157)"><g><path d="M 9.78125 -18.046875 C 12.15625 -18.046875 13.972656 -17.53125 15.234375 -16.5 C 16.503906 -15.476562 17.140625 -13.910156 17.140625 -11.796875 L 17.140625 0 L 13.765625 0 L 12.828125 -2.390625 L 12.703125 -2.390625 C 11.941406 -1.441406 11.140625 -0.75 10.296875 -0.3125 C 9.453125 0.113281 8.296875 0.328125 6.828125 0.328125 C 5.253906 0.328125 3.945312 -0.125 2.90625 -1.03125 C 1.875 -1.9375 1.359375 -3.351562 1.359375 -5.28125 C 1.359375 -7.15625 2.015625 -8.535156 3.328125 -9.421875 C 4.648438 -10.304688 6.628906 -10.804688 9.265625 -10.921875 L 12.34375 -11.015625 L 12.34375 -11.796875 C 12.34375 -12.722656 12.097656 -13.398438 11.609375 -13.828125 C 11.128906 -14.265625 10.457031 -14.484375 9.59375 -14.484375 C 8.726562 -14.484375 7.882812 -14.359375 7.0625 -14.109375 C 6.238281 -13.859375 5.414062 -13.550781 4.59375 -13.1875 L 3.015625 -16.453125 C 3.941406 -16.929688 4.988281 -17.316406 6.15625 -17.609375 C 7.320312 -17.898438 8.53125 -18.046875 9.78125 -18.046875 Z M 12.34375 -8.1875 L 10.46875 -8.125 C 8.90625 -8.082031 7.820312 -7.800781 7.21875 -7.28125 C 6.613281 -6.769531 6.3125 -6.09375 6.3125 -5.25 C 6.3125 -4.507812 6.523438 -3.984375 6.953125 -3.671875 C 7.390625 -3.359375 7.953125 -3.203125 8.640625 -3.203125 C 9.679688 -3.203125 10.554688 -3.507812 11.265625 -4.125 C 11.984375 -4.738281 12.34375 -5.609375 12.34375 -6.734375 Z M 12.34375 -8.1875 "/></g></g></g><g fill="#363435" fill-opacity="1"><g transform="translate(96.841175, 62.020312)"><g><path d="M 9.71875 -5.28125 C 9.71875 -3.53125 9.238281 -2.210938 8.28125 -1.328125 C 7.320312 -0.441406 5.992188 0 4.296875 0 L 1.40625 0 L 1.40625 -10.359375 L 4.59375 -10.359375 C 5.632812 -10.359375 6.539062 -10.164062 7.3125 -9.78125 C 8.082031 -9.394531 8.675781 -8.820312 9.09375 -8.0625 C 9.507812 -7.3125 9.71875 -6.382812 9.71875 -5.28125 Z M 8.328125 -5.234375 C 8.328125 -6.617188 7.984375 -7.632812 7.296875 -8.28125 C 6.617188 -8.925781 5.65625 -9.25 4.40625 -9.25 L 2.71875 -9.25 L 2.71875 -1.125 L 4.125 -1.125 C 6.925781 -1.125 8.328125 -2.492188 8.328125 -5.234375 Z M 8.328125 -5.234375 "/></g></g></g><g fill="#363435" fill-opacity="1"><g transform="translate(112.397183, 62.020312)"><g><path d="M 7.203125 0 L 1.40625 0 L 1.40625 -10.359375 L 7.203125 -10.359375 L 7.203125 -9.21875 L 2.71875 -9.21875 L 2.71875 -5.984375 L 6.9375 -5.984375 L 6.9375 -4.84375 L 2.71875 -4.84375 L 2.71875 -1.140625 L 7.203125 -1.140625 Z M 7.203125 0 "/></g></g></g><g fill="#363435" fill-opacity="1"><g transform="translate(125.429011, 62.020312)"><g><path d="M 7.28125 -2.765625 C 7.28125 -1.847656 6.945312 -1.132812 6.28125 -0.625 C 5.613281 -0.113281 4.710938 0.140625 3.578125 0.140625 C 3.003906 0.140625 2.46875 0.0976562 1.96875 0.015625 C 1.476562 -0.0664062 1.066406 -0.1875 0.734375 -0.34375 L 0.734375 -1.59375 C 1.085938 -1.4375 1.519531 -1.296875 2.03125 -1.171875 C 2.550781 -1.046875 3.085938 -0.984375 3.640625 -0.984375 C 4.410156 -0.984375 4.992188 -1.132812 5.390625 -1.4375 C 5.785156 -1.738281 5.984375 -2.144531 5.984375 -2.65625 C 5.984375 -3 5.910156 -3.285156 5.765625 -3.515625 C 5.617188 -3.742188 5.363281 -3.953125 5 -4.140625 C 4.644531 -4.335938 4.160156 -4.554688 3.546875 -4.796875 C 2.648438 -5.109375 1.976562 -5.492188 1.53125 -5.953125 C 1.09375 -6.421875 0.875 -7.0625 0.875 -7.875 C 0.875 -8.414062 1.015625 -8.882812 1.296875 -9.28125 C 1.578125 -9.675781 1.960938 -9.976562 2.453125 -10.1875 C 2.941406 -10.40625 3.519531 -10.515625 4.1875 -10.515625 C 4.738281 -10.515625 5.25 -10.457031 5.71875 -10.34375 C 6.195312 -10.238281 6.640625 -10.097656 7.046875 -9.921875 L 6.640625 -8.8125 C 6.273438 -8.96875 5.878906 -9.097656 5.453125 -9.203125 C 5.023438 -9.304688 4.59375 -9.359375 4.15625 -9.359375 C 3.5 -9.359375 3.003906 -9.21875 2.671875 -8.9375 C 2.347656 -8.664062 2.1875 -8.304688 2.1875 -7.859375 C 2.1875 -7.503906 2.257812 -7.210938 2.40625 -6.984375 C 2.550781 -6.753906 2.785156 -6.539062 3.109375 -6.34375 C 3.441406 -6.15625 3.890625 -5.960938 4.453125 -5.765625 C 5.066406 -5.535156 5.582031 -5.289062 6 -5.03125 C 6.425781 -4.78125 6.742188 -4.472656 6.953125 -4.109375 C 7.171875 -3.753906 7.28125 -3.304688 7.28125 -2.765625 Z M 7.28125 -2.765625 "/></g></g></g><g fill="#363435" fill-opacity="1"><g transform="translate(138.359295, 62.020312)"><g><path d="M 7.203125 0 L 1.40625 0 L 1.40625 -10.359375 L 7.203125 -10.359375 L 7.203125 -9.21875 L 2.71875 -9.21875 L 2.71875 -5.984375 L 6.9375 -5.984375 L 6.9375 -4.84375 L 2.71875 -4.84375 L 2.71875 -1.140625 L 7.203125 -1.140625 Z M 7.203125 0 "/></g></g></g><g fill="#363435" fill-opacity="1"><g transform="translate(151.391122, 62.020312)"><g><path d="M 9.625 0 L 8.09375 0 L 2.5625 -8.609375 L 2.5 -8.609375 C 2.519531 -8.265625 2.539062 -7.84375 2.5625 -7.34375 C 2.59375 -6.84375 2.609375 -6.328125 2.609375 -5.796875 L 2.609375 0 L 1.40625 0 L 1.40625 -10.359375 L 2.921875 -10.359375 L 8.453125 -1.78125 L 8.5 -1.78125 C 8.488281 -1.9375 8.476562 -2.171875 8.46875 -2.484375 C 8.457031 -2.796875 8.441406 -3.128906 8.421875 -3.484375 C 8.410156 -3.847656 8.40625 -4.191406 8.40625 -4.515625 L 8.40625 -10.359375 L 9.625 -10.359375 Z M 9.625 0 "/></g></g></g><g fill="#363435" fill-opacity="1"><g transform="translate(167.382329, 62.020312)"><g><path d="M 8.703125 -10.359375 L 5.015625 0 L 3.703125 0 L 0 -10.359375 L 1.359375 -10.359375 L 3.703125 -3.71875 C 3.859375 -3.289062 3.984375 -2.890625 4.078125 -2.515625 C 4.179688 -2.140625 4.273438 -1.785156 4.359375 -1.453125 C 4.421875 -1.785156 4.503906 -2.140625 4.609375 -2.515625 C 4.722656 -2.898438 4.859375 -3.3125 5.015625 -3.75 L 7.328125 -10.359375 Z M 8.703125 -10.359375 "/></g></g></g><g fill="#363435" fill-opacity="1"><g transform="translate(181.052453, 62.020312)"><g><path d="M 10.453125 -5.203125 C 10.453125 -4.117188 10.269531 -3.175781 9.90625 -2.375 C 9.539062 -1.582031 9.003906 -0.960938 8.296875 -0.515625 C 7.585938 -0.078125 6.710938 0.140625 5.671875 0.140625 C 4.597656 0.140625 3.707031 -0.078125 3 -0.515625 C 2.289062 -0.960938 1.757812 -1.585938 1.40625 -2.390625 C 1.0625 -3.191406 0.890625 -4.132812 0.890625 -5.21875 C 0.890625 -6.269531 1.0625 -7.191406 1.40625 -7.984375 C 1.757812 -8.785156 2.289062 -9.410156 3 -9.859375 C 3.707031 -10.304688 4.601562 -10.53125 5.6875 -10.53125 C 6.726562 -10.53125 7.597656 -10.304688 8.296875 -9.859375 C 9.003906 -9.421875 9.539062 -8.800781 9.90625 -8 C 10.269531 -7.207031 10.453125 -6.273438 10.453125 -5.203125 Z M 2.265625 -5.203125 C 2.265625 -3.890625 2.539062 -2.859375 3.09375 -2.109375 C 3.644531 -1.359375 4.503906 -0.984375 5.671875 -0.984375 C 6.847656 -0.984375 7.707031 -1.359375 8.25 -2.109375 C 8.800781 -2.859375 9.078125 -3.890625 9.078125 -5.203125 C 9.078125 -6.503906 8.804688 -7.523438 8.265625 -8.265625 C 7.722656 -9.003906 6.863281 -9.375 5.6875 -9.375 C 4.507812 -9.375 3.644531 -9.003906 3.09375 -8.265625 C 2.539062 -7.523438 2.265625 -6.503906 2.265625 -5.203125 Z M 2.265625 -5.203125 "/></g></g></g><g fill="#363435" fill-opacity="1"><g transform="translate(197.348302, 62.020312)"><g><path d="M 1.40625 0 L 1.40625 -10.359375 L 2.71875 -10.359375 L 2.71875 -1.15625 L 7.25 -1.15625 L 7.25 0 Z M 1.40625 0 "/></g></g></g><g fill="#363435" fill-opacity="1"><g transform="translate(209.91591, 62.020312)"><g><path d="M 8.703125 -10.359375 L 5.015625 0 L 3.703125 0 L 0 -10.359375 L 1.359375 -10.359375 L 3.703125 -3.71875 C 3.859375 -3.289062 3.984375 -2.890625 4.078125 -2.515625 C 4.179688 -2.140625 4.273438 -1.785156 4.359375 -1.453125 C 4.421875 -1.785156 4.503906 -2.140625 4.609375 -2.515625 C 4.722656 -2.898438 4.859375 -3.3125 5.015625 -3.75 L 7.328125 -10.359375 Z M 8.703125 -10.359375 "/></g></g></g><g fill="#363435" fill-opacity="1"><g transform="translate(223.586034, 62.020312)"><g><path d="M 7.203125 0 L 1.40625 0 L 1.40625 -10.359375 L 7.203125 -10.359375 L 7.203125 -9.21875 L 2.71875 -9.21875 L 2.71875 -5.984375 L 6.9375 -5.984375 L 6.9375 -4.84375 L 2.71875 -4.84375 L 2.71875 -1.140625 L 7.203125 -1.140625 Z M 7.203125 0 "/></g></g></g><g fill="#363435" fill-opacity="1"><g transform="translate(236.617858, 62.020312)"><g><path d="M 9.71875 -5.28125 C 9.71875 -3.53125 9.238281 -2.210938 8.28125 -1.328125 C 7.320312 -0.441406 5.992188 0 4.296875 0 L 1.40625 0 L 1.40625 -10.359375 L 4.59375 -10.359375 C 5.632812 -10.359375 6.539062 -10.164062 7.3125 -9.78125 C 8.082031 -9.394531 8.675781 -8.820312 9.09375 -8.0625 C 9.507812 -7.3125 9.71875 -6.382812 9.71875 -5.28125 Z M 8.328125 -5.234375 C 8.328125 -6.617188 7.984375 -7.632812 7.296875 -8.28125 C 6.617188 -8.925781 5.65625 -9.25 4.40625 -9.25 L 2.71875 -9.25 L 2.71875 -1.125 L 4.125 -1.125 C 6.925781 -1.125 8.328125 -2.492188 8.328125 -5.234375 Z M 8.328125 -5.234375 "/></g></g></g><g fill="#363435" fill-opacity="1"><g transform="translate(252.173864, 62.020312)"><g><path d="M 10.453125 -5.203125 C 10.453125 -4.117188 10.269531 -3.175781 9.90625 -2.375 C 9.539062 -1.582031 9.003906 -0.960938 8.296875 -0.515625 C 7.585938 -0.078125 6.710938 0.140625 5.671875 0.140625 C 4.597656 0.140625 3.707031 -0.078125 3 -0.515625 C 2.289062 -0.960938 1.757812 -1.585938 1.40625 -2.390625 C 1.0625 -3.191406 0.890625 -4.132812 0.890625 -5.21875 C 0.890625 -6.269531 1.0625 -7.191406 1.40625 -7.984375 C 1.757812 -8.785156 2.289062 -9.410156 3 -9.859375 C 3.707031 -10.304688 4.601562 -10.53125 5.6875 -10.53125 C 6.726562 -10.53125 7.597656 -10.304688 8.296875 -9.859375 C 9.003906 -9.421875 9.539062 -8.800781 9.90625 -8 C 10.269531 -7.207031 10.453125 -6.273438 10.453125 -5.203125 Z M 2.265625 -5.203125 C 2.265625 -3.890625 2.539062 -2.859375 3.09375 -2.109375 C 3.644531 -1.359375 4.503906 -0.984375 5.671875 -0.984375 C 6.847656 -0.984375 7.707031 -1.359375 8.25 -2.109375 C 8.800781 -2.859375 9.078125 -3.890625 9.078125 -5.203125 C 9.078125 -6.503906 8.804688 -7.523438 8.265625 -8.265625 C 7.722656 -9.003906 6.863281 -9.375 5.6875 -9.375 C 4.507812 -9.375 3.644531 -9.003906 3.09375 -8.265625 C 2.539062 -7.523438 2.265625 -6.503906 2.265625 -5.203125 Z M 2.265625 -5.203125 "/></g></g></g><g fill="#363435" fill-opacity="1"><g transform="translate(268.469713, 62.020312)"><g><path d="M 4.265625 -10.359375 C 5.554688 -10.359375 6.507812 -10.113281 7.125 -9.625 C 7.738281 -9.132812 8.046875 -8.398438 8.046875 -7.421875 C 8.046875 -6.867188 7.941406 -6.40625 7.734375 -6.03125 C 7.535156 -5.664062 7.273438 -5.367188 6.953125 -5.140625 C 6.640625 -4.921875 6.3125 -4.753906 5.96875 -4.640625 L 8.8125 0 L 7.28125 0 L 4.78125 -4.28125 L 2.71875 -4.28125 L 2.71875 0 L 1.40625 0 L 1.40625 -10.359375 Z M 4.1875 -9.234375 L 2.71875 -9.234375 L 2.71875 -5.390625 L 4.265625 -5.390625 C 5.109375 -5.390625 5.722656 -5.554688 6.109375 -5.890625 C 6.492188 -6.222656 6.6875 -6.710938 6.6875 -7.359375 C 6.6875 -8.035156 6.484375 -8.515625 6.078125 -8.796875 C 5.671875 -9.085938 5.039062 -9.234375 4.1875 -9.234375 Z M 4.1875 -9.234375 "/></g></g></g><g clip-path="url(#2d8b2c0b12)"><path fill="#363435" d="M 368.902344 48.441406 C 369.152344 48.53125 369.40625 48.585938 369.671875 48.613281 C 369.933594 48.640625 370.195312 48.632812 370.457031 48.597656 C 370.71875 48.5625 370.972656 48.496094 371.21875 48.398438 C 371.464844 48.304688 371.695312 48.179688 371.910156 48.027344 C 372.125 47.875 372.320312 47.703125 372.496094 47.503906 C 372.671875 47.304688 372.820312 47.089844 372.941406 46.855469 C 373.066406 46.621094 373.160156 46.378906 373.222656 46.121094 C 373.289062 45.867188 373.324219 45.605469 373.324219 45.34375 L 373.324219 38.839844 C 373.324219 38.023438 373.203125 37.222656 372.953125 36.445312 C 372.707031 35.667969 372.34375 34.941406 371.871094 34.277344 C 371.398438 33.609375 370.835938 33.03125 370.183594 32.539062 C 369.53125 32.046875 368.820312 31.664062 368.046875 31.394531 L 327.203125 17.046875 C 326.953125 16.957031 326.695312 16.902344 326.429688 16.875 C 326.164062 16.851562 325.902344 16.855469 325.640625 16.890625 C 325.375 16.929688 325.121094 16.996094 324.875 17.09375 C 324.628906 17.195312 324.394531 17.320312 324.179688 17.472656 C 323.964844 17.628906 323.769531 17.804688 323.59375 18.003906 C 323.417969 18.207031 323.273438 18.421875 323.148438 18.660156 C 323.027344 18.894531 322.9375 19.140625 322.875 19.402344 C 322.8125 19.660156 322.78125 19.921875 322.78125 20.1875 L 322.78125 28.808594 C 322.777344 29.316406 322.851562 29.8125 323.003906 30.296875 C 323.15625 30.785156 323.378906 31.234375 323.671875 31.648438 C 323.96875 32.0625 324.316406 32.421875 324.722656 32.730469 C 325.132812 33.035156 325.574219 33.269531 326.054688 33.433594 L 349.382812 41.640625 Z M 368.902344 48.441406 " fill-opacity="1" fill-rule="nonzero"/></g><g clip-path="url(#76e4403b2b)"><path fill="#363435" d="M 322.78125 63.089844 C 322.78125 63.355469 322.8125 63.617188 322.875 63.875 C 322.9375 64.132812 323.03125 64.378906 323.152344 64.613281 C 323.277344 64.851562 323.421875 65.066406 323.597656 65.269531 C 323.773438 65.46875 323.96875 65.644531 324.183594 65.796875 C 324.398438 65.949219 324.632812 66.078125 324.878906 66.175781 C 325.125 66.273438 325.378906 66.339844 325.640625 66.375 C 325.902344 66.414062 326.167969 66.417969 326.429688 66.390625 C 326.695312 66.367188 326.953125 66.308594 327.203125 66.222656 L 360.902344 54.390625 C 361.105469 54.316406 361.265625 54.1875 361.390625 54.011719 C 361.511719 53.832031 361.574219 53.636719 361.574219 53.421875 C 361.574219 53.203125 361.511719 53.007812 361.390625 52.828125 C 361.265625 52.652344 361.105469 52.523438 360.902344 52.449219 L 347.480469 47.714844 L 342.617188 46.011719 C 340.738281 45.351562 338.855469 45.351562 336.972656 46.011719 L 326.046875 49.84375 C 325.566406 50.007812 325.125 50.246094 324.71875 50.550781 C 324.3125 50.855469 323.960938 51.214844 323.667969 51.632812 C 323.375 52.046875 323.152344 52.496094 323.003906 52.980469 C 322.851562 53.464844 322.777344 53.960938 322.78125 54.46875 Z M 322.78125 63.089844 " fill-opacity="1" fill-rule="nonzero"/></g><g clip-path="url(#44399aef2e)"><path fill="#363435" d="M 5.761719 48.441406 C 5.511719 48.53125 5.257812 48.585938 4.996094 48.613281 C 4.730469 48.640625 4.46875 48.632812 4.207031 48.597656 C 3.945312 48.5625 3.691406 48.496094 3.449219 48.398438 C 3.203125 48.304688 2.972656 48.179688 2.753906 48.027344 C 2.539062 47.875 2.34375 47.703125 2.167969 47.503906 C 1.996094 47.304688 1.84375 47.089844 1.722656 46.855469 C 1.597656 46.621094 1.503906 46.378906 1.441406 46.121094 C 1.375 45.867188 1.34375 45.605469 1.339844 45.34375 L 1.339844 38.839844 C 1.339844 38.023438 1.464844 37.222656 1.710938 36.445312 C 1.960938 35.667969 2.320312 34.941406 2.792969 34.277344 C 3.265625 33.609375 3.828125 33.03125 4.480469 32.539062 C 5.132812 32.046875 5.847656 31.664062 6.617188 31.394531 L 47.460938 17.046875 C 47.710938 16.957031 47.96875 16.902344 48.234375 16.875 C 48.5 16.851562 48.761719 16.855469 49.027344 16.890625 C 49.289062 16.929688 49.542969 16.996094 49.789062 17.09375 C 50.035156 17.195312 50.269531 17.320312 50.484375 17.472656 C 50.703125 17.628906 50.898438 17.804688 51.070312 18.003906 C 51.246094 18.207031 51.394531 18.421875 51.515625 18.660156 C 51.636719 18.894531 51.730469 19.140625 51.792969 19.402344 C 51.855469 19.660156 51.886719 19.921875 51.886719 20.1875 L 51.886719 28.808594 C 51.886719 29.316406 51.8125 29.8125 51.660156 30.296875 C 51.507812 30.785156 51.285156 31.234375 50.992188 31.648438 C 50.699219 32.0625 50.347656 32.421875 49.941406 32.730469 C 49.535156 33.035156 49.089844 33.269531 48.609375 33.433594 L 25.28125 41.640625 Z M 5.761719 48.441406 " fill-opacity="1" fill-rule="nonzero"/></g><g clip-path="url(#093074c9d2)"><path fill="#363435" d="M 51.886719 63.089844 C 51.882812 63.355469 51.851562 63.617188 51.789062 63.875 C 51.726562 64.132812 51.632812 64.378906 51.511719 64.613281 C 51.390625 64.851562 51.242188 65.066406 51.066406 65.269531 C 50.894531 65.46875 50.699219 65.644531 50.480469 65.796875 C 50.265625 65.949219 50.03125 66.078125 49.785156 66.175781 C 49.539062 66.273438 49.285156 66.339844 49.023438 66.375 C 48.761719 66.414062 48.496094 66.417969 48.234375 66.390625 C 47.96875 66.367188 47.710938 66.308594 47.460938 66.222656 L 13.761719 54.390625 C 13.558594 54.316406 13.398438 54.1875 13.277344 54.011719 C 13.152344 53.832031 13.089844 53.636719 13.089844 53.421875 C 13.089844 53.203125 13.152344 53.007812 13.277344 52.828125 C 13.398438 52.652344 13.558594 52.523438 13.761719 52.449219 L 27.1875 47.714844 L 32.046875 46.011719 C 33.929688 45.351562 35.8125 45.351562 37.691406 46.011719 L 48.617188 49.84375 C 49.097656 50.007812 49.542969 50.246094 49.949219 50.550781 C 50.351562 50.855469 50.703125 51.214844 50.996094 51.632812 C 51.289062 52.046875 51.511719 52.496094 51.664062 52.980469 C 51.816406 53.464844 51.890625 53.960938 51.886719 54.46875 Z M 51.886719 63.089844 " fill-opacity="1" fill-rule="nonzero"/></g></svg>